<svg xmlns="http://www.w3.org/2000/svg" width="485.7767" height="199.2648" viewBox="0 0 485.7767 199.2648"><title>Logo</title><path d="M382.4141,365.1846v48.5322H376.15V365.1846Z" transform="translate(-372.633 -292.8462)" fill="#fff"/><path d="M417.9839,412.4209a23.3359,23.3359,0,0,1-10.0088,2.0166c-10.5132,0-17.3535-7.1289-17.3535-17.7861,0-10.7285,7.3447-18.5059,18.7217-18.5059a21.1757,21.1757,0,0,1,8.7846,1.8008l-1.44,4.8965a14.6929,14.6929,0,0,0-7.3447-1.6563c-7.9927,0-12.313,5.9043-12.313,13.1768,0,8.0654,5.1841,13.0332,12.0967,13.0332a18.0038,18.0038,0,0,0,7.7768-1.7276Z" transform="translate(-372.633 -292.8462)" fill="#fff"/><path d="M456.5049,396.0039c0,12.8887-8.9292,18.5049-17.3535,18.5049-9.4331,0-16.7056-6.9121-16.7056-17.93,0-11.6641,7.6328-18.5049,17.2813-18.5049C449.7358,378.0742,456.5049,385.3467,456.5049,396.0039Zm-27.65.3594c0,7.6328,4.3921,13.3935,10.5845,13.3935,6.0488,0,10.5849-5.6884,10.5849-13.5371,0-5.9043-2.9521-13.3935-10.4409-13.3935S428.8545,389.7393,428.8545,396.3633Z" transform="translate(-372.633 -292.8462)" fill="#fff"/><path d="M464.4932,388.2988c0-3.6006-.0718-6.5527-.2881-9.4326h5.6167l.36,5.7608h.1441a12.8156,12.8156,0,0,1,11.521-6.5528c4.8247,0,12.313,2.88,12.313,14.833v20.81h-6.3365v-20.09c0-5.6163-2.0883-10.2969-8.0644-10.2969a9.0025,9.0025,0,0,0-8.4971,6.48,9.1189,9.1189,0,0,0-.4321,2.9532v20.9531h-6.3364Z" transform="translate(-372.633 -292.8462)" fill="#fff"/><path d="M523.7505,413.7168l-.5039-4.3926H523.03a12.98,12.98,0,0,1-10.6568,5.1846c-7.0566,0-10.6572-4.9678-10.6572-10.0088,0-8.4248,7.4888-13.0332,20.9541-12.9609v-.72c0-2.8808-.792-8.0654-7.9209-8.0654a17.3657,17.3657,0,0,0-9.0727,2.5928l-1.44-4.1768a21.6311,21.6311,0,0,1,11.4487-3.0957c10.6573,0,13.25,7.2725,13.25,14.2569v13.0332a49.113,49.113,0,0,0,.5756,8.3525Zm-.936-17.7852c-6.9126-.1445-14.7613,1.08-14.7613,7.8487,0,4.1045,2.7359,6.0488,5.9766,6.0488a8.6709,8.6709,0,0,0,8.4243-5.833,6.6026,6.6026,0,0,0,.36-2.0156Z" transform="translate(-372.633 -292.8462)" fill="#fff"/><path d="M546.5015,368.8574v10.0088h9.0727V383.69h-9.0727v18.794c0,4.32,1.2241,6.7685,4.7524,6.7685a14.056,14.056,0,0,0,3.6724-.4326l.2881,4.7529a15.5157,15.5157,0,0,1-5.6167.8643,8.7793,8.7793,0,0,1-6.84-2.665c-1.8-1.8721-2.4482-4.9678-2.4482-9.0723V383.69h-5.4009v-4.8242h5.4009v-8.3525Z" transform="translate(-372.633 -292.8462)" fill="#fff"/><path d="M562.7,389.7393c0-4.1045-.0718-7.6329-.2881-10.8731h5.5444l.2164,6.8408h.288c1.584-4.6806,5.4-7.6328,9.649-7.6328a6.8338,6.8338,0,0,1,1.8.2158v5.9766a9.49,9.49,0,0,0-2.16-.2158c-4.4643,0-7.6328,3.3838-8.4966,8.1367a17.8265,17.8265,0,0,0-.2881,2.9521v18.5772H562.7Z" transform="translate(-372.633 -292.8462)" fill="#fff"/><path d="M617.0635,396.0039c0,12.8887-8.9292,18.5049-17.3535,18.5049-9.4331,0-16.7056-6.9121-16.7056-17.93,0-11.6641,7.6328-18.5049,17.2812-18.5049C610.2944,378.0742,617.0635,385.3467,617.0635,396.0039Zm-27.65.3594c0,7.6328,4.3921,13.3935,10.5845,13.3935,6.0488,0,10.5849-5.6884,10.5849-13.5371,0-5.9043-2.9521-13.3935-10.4409-13.3935S589.4131,389.7393,589.4131,396.3633Z" transform="translate(-372.633 -292.8462)" fill="#fff"/><path d="M625.0518,388.2988c0-3.6006-.0718-6.5527-.2881-9.4326H630.38l.36,5.7608h.1441a12.8156,12.8156,0,0,1,11.521-6.5528c4.8242,0,12.3125,2.88,12.3125,14.833v20.81h-6.336v-20.09c0-5.6163-2.0888-10.2969-8.0644-10.2969a9.0025,9.0025,0,0,0-8.4971,6.48,9.1189,9.1189,0,0,0-.4321,2.9532v20.9531h-6.3364Z" transform="translate(-372.633 -292.8462)" fill="#fff"/><circle cx="69.4382" cy="99.6324" r="6.4216" fill="#da0100"/><circle cx="228.624" cy="99.6324" r="6.4216" fill="#da0100"/><circle cx="6.4216" cy="61.2" r="6.4216" fill="#da0100"/><path d="M747.9283,285.9087h0a4.1794,4.1794,0,0,1,4.1794,4.1794v28.8085a4.1795,4.1795,0,0,1-4.1795,4.1795h0a4.1794,4.1794,0,0,1-4.1794-4.1794V290.0882a4.1795,4.1795,0,0,1,4.1795-4.1795Z" transform="translate(-272.9297 493.2235) rotate(-58.7612)" fill="#fff"/><path d="M752.8624,306.0561h0a4.1794,4.1794,0,0,1,4.1794,4.1794v28.8083a4.1795,4.1795,0,0,1-4.1795,4.1795h0a4.1794,4.1794,0,0,1-4.1794-4.1794V310.2356A4.1795,4.1795,0,0,1,752.8624,306.0561Z" transform="matrix(0.855, 0.5186, -0.5186, 0.855, -95.1123, -636.2207)" fill="#fff"/><path d="M772.9568,306.6539q.127,6.9795.2425,14.0075a78.9289,78.9289,0,1,1-17.4233.2287q-.0868-7.0275-.17-14.0029a92.8852,92.8852,0,1,0,17.3513-.2333Z" transform="translate(-372.633 -292.8462)" fill="#fff"/><path d="M765.5334,345.8689a192.4922,192.4922,0,0,1-35.5324-3.3081,172.262,172.262,0,0,1,0,113.6432h71.0648a185.6611,185.6611,0,0,1,0-113.6432A192.4922,192.4922,0,0,1,765.5334,345.8689Z" transform="translate(-372.633 -292.8462)" fill="#fff"/><rect x="357.6112" y="81.3535" width="70.5784" height="35.7526" fill="#b0b0b0"/><circle cx="392.9004" cy="99.2298" r="14.9488" fill="#fff"/><circle cx="392.9004" cy="98.9461" r="11.7011" fill="#cb2228"/><rect x="349.3202" y="74.8696" width="87.1603" height="6.4839" rx="3.2419" fill="#fff"/><rect x="349.3202" y="116.5388" width="87.1603" height="6.4839" rx="3.2419" fill="#fff"/></svg>