<svg xmlns="http://www.w3.org/2000/svg" width="185.7528" height="199.2648" viewBox="0 0 185.7528 199.2648"><title>LogoImg</title><path d="M596.4382,285.9087h0a4.1794,4.1794,0,0,1,4.1794,4.1794v28.8085a4.1795,4.1795,0,0,1-4.1795,4.1795h0a4.1794,4.1794,0,0,1-4.1794-4.1794V290.0882A4.1795,4.1795,0,0,1,596.4382,285.9087Z" transform="translate(-494.3901 363.6974) rotate(-58.7612)" fill="#fff"/><path d="M601.3723,306.0561h0a4.1794,4.1794,0,0,1,4.1794,4.1794v28.8083a4.1795,4.1795,0,0,1-4.1795,4.1795h0a4.1794,4.1794,0,0,1-4.1794-4.1794V310.2356a4.1795,4.1795,0,0,1,4.1795-4.1795Z" transform="translate(-265.6109 -557.6559) rotate(31.2393)" fill="#fff"/><path d="M621.4666,306.6539q.1272,6.9795.2425,14.0075a78.9288,78.9288,0,1,1-17.4232.2287q-.0869-7.0275-.17-14.0029a92.8853,92.8853,0,1,0,17.3512-.2333Z" transform="translate(-521.1669 -292.8462)" fill="#fff"/><path d="M614.0433,345.8689a192.4922,192.4922,0,0,1-35.5324-3.3081,172.262,172.262,0,0,1,0,113.6432h71.0648a185.6611,185.6611,0,0,1,0-113.6432A192.4922,192.4922,0,0,1,614.0433,345.8689Z" transform="translate(-521.1669 -292.8462)" fill="#fff"/><rect x="57.5872" y="81.3535" width="70.5784" height="35.7526" fill="#b0b0b0"/><circle cx="92.8764" cy="99.2298" r="14.9488" fill="#fff"/><circle cx="92.8764" cy="98.9461" r="11.7011" fill="#cb2228"/><rect x="49.2962" y="74.8696" width="87.1603" height="6.4839" rx="3.2419" fill="#fff"/><rect x="49.2962" y="116.5388" width="87.1603" height="6.4839" rx="3.2419" fill="#fff"/></svg>