<svg xmlns="http://www.w3.org/2000/svg" width="282.085" height="66.8845" viewBox="0 0 282.085 66.8845"><title>LogoText</title><path d="M159.748,322.0527V370.585h-6.2641V322.0527Z" transform="translate(-149.9672 -304.4924)" fill="#fff"/><path d="M195.3179,369.2891a23.3559,23.3559,0,0,1-10.0088,2.0156c-10.5132,0-17.3535-7.1289-17.3535-17.7852,0-10.729,7.3447-18.5058,18.7216-18.5058a21.185,21.185,0,0,1,8.7847,1.8l-1.44,4.8964a14.6942,14.6942,0,0,0-7.3448-1.6562c-7.9926,0-12.3129,5.9048-12.3129,13.1772,0,8.0645,5.184,13.0332,12.0966,13.0332a18.0023,18.0023,0,0,0,7.7769-1.7285Z" transform="translate(-149.9672 -304.4924)" fill="#fff"/><path d="M233.8389,352.8716c0,12.8891-8.9292,18.5054-17.3535,18.5054-9.4332,0-16.7056-6.9131-16.7056-17.93,0-11.6646,7.6328-18.5054,17.2812-18.5054C227.07,334.9419,233.8389,342.2144,233.8389,352.8716Zm-27.65.36c0,7.6329,4.3921,13.3926,10.5844,13.3926,6.0489,0,10.585-5.688,10.585-13.5366,0-5.9043-2.9521-13.3931-10.4409-13.3931S206.1885,346.6069,206.1885,353.2314Z" transform="translate(-149.9672 -304.4924)" fill="#fff"/><path d="M241.8271,345.167c0-3.6006-.0717-6.5527-.288-9.4331h5.6167l.36,5.7607h.1441a12.8156,12.8156,0,0,1,11.521-6.5527c4.8247,0,12.313,2.88,12.313,14.8335v20.81h-6.3365v-20.09c0-5.6162-2.0884-10.2969-8.0644-10.2969a9.0026,9.0026,0,0,0-8.4971,6.4805,9.1134,9.1134,0,0,0-.4321,2.9526V370.585h-6.3365Z" transform="translate(-149.9672 -304.4924)" fill="#fff"/><path d="M301.0845,370.585l-.5039-4.3926h-.2163a12.98,12.98,0,0,1-10.6568,5.1846c-7.0566,0-10.6572-4.9688-10.6572-10.0088,0-8.4248,7.4888-13.0332,20.9541-12.961v-.72c0-2.88-.792-8.0649-7.9209-8.0649a17.366,17.366,0,0,0-9.0728,2.5923l-1.44-4.1763a21.63,21.63,0,0,1,11.4487-3.0962c10.6573,0,13.25,7.2725,13.25,14.2573v13.0332a49.12,49.12,0,0,0,.5757,8.3526Zm-.9361-17.7857c-6.9126-.144-14.7612,1.08-14.7612,7.8486,0,4.1041,2.7358,6.0484,5.9766,6.0484a8.67,8.67,0,0,0,8.4243-5.832,6.6057,6.6057,0,0,0,.36-2.0162Z" transform="translate(-149.9672 -304.4924)" fill="#fff"/><path d="M323.8354,325.7251v10.0088h9.0728v4.8247h-9.0728v18.7935c0,4.32,1.2242,6.768,4.7525,6.768a14.1093,14.1093,0,0,0,3.6724-.4316l.288,4.7519a15.5149,15.5149,0,0,1-5.6167.8643,8.7788,8.7788,0,0,1-6.84-2.6641c-1.8-1.872-2.4482-4.9687-2.4482-9.0727V340.5586h-5.4009v-4.8247h5.4009v-8.3526Z" transform="translate(-149.9672 -304.4924)" fill="#fff"/><path d="M340.0342,346.6069c0-4.1045-.0718-7.6328-.2881-10.873h5.5444l.2163,6.8408h.2881c1.584-4.6807,5.4-7.6328,9.6489-7.6328a6.855,6.855,0,0,1,1.8.2158v5.9766a9.5131,9.5131,0,0,0-2.16-.2158c-4.4644,0-7.6328,3.3842-8.4966,8.1367a17.83,17.83,0,0,0-.2881,2.9521V370.585h-6.2646Z" transform="translate(-149.9672 -304.4924)" fill="#fff"/><path d="M394.3975,352.8716c0,12.8891-8.9292,18.5054-17.3536,18.5054-9.4331,0-16.7055-6.9131-16.7055-17.93,0-11.6646,7.6328-18.5054,17.2812-18.5054C387.6284,334.9419,394.3975,342.2144,394.3975,352.8716Zm-27.65.36c0,7.6329,4.3921,13.3926,10.5844,13.3926,6.0489,0,10.585-5.688,10.585-13.5366,0-5.9043-2.9521-13.3931-10.4409-13.3931S366.7471,346.6069,366.7471,353.2314Z" transform="translate(-149.9672 -304.4924)" fill="#fff"/><path d="M402.3857,345.167c0-3.6006-.0717-6.5527-.288-9.4331h5.6167l.36,5.7607h.1441a12.8156,12.8156,0,0,1,11.521-6.5527c4.8247,0,12.3129,2.88,12.3129,14.8335v20.81h-6.3364v-20.09c0-5.6162-2.0884-10.2969-8.0644-10.2969a9.0026,9.0026,0,0,0-8.4971,6.4805,9.1134,9.1134,0,0,0-.4321,2.9526V370.585h-6.3365Z" transform="translate(-149.9672 -304.4924)" fill="#fff"/><circle cx="69.4382" cy="44.8541" r="6.4216" fill="#da0100"/><circle cx="228.624" cy="44.8541" r="6.4216" fill="#da0100"/><circle cx="6.4216" cy="6.4216" r="6.4216" fill="#da0100"/></svg>